<svg width="286" height="125" viewBox="0 0 286 125" fill="none" xmlns="http://www.w3.org/2000/svg">
<path d="M73.5 156C60.7 156 48.7 152.9 37.5 146.7C26.3 140.5 17.2 131.6 10.2 120C3.4 108.2 2.23517e-07 94.3 2.23517e-07 78.3C2.23517e-07 62.3 3.4 48.5 10.2 36.9C17.2 25.1 26.3 16 37.5 9.6C48.7 3.19999 60.7 -1.50204e-05 73.5 -1.50204e-05C86.3 -1.50204e-05 98.2 3.19999 109.2 9.6C120.4 16 129.4 25.1 136.2 36.9C143 48.5 146.4 62.3 146.4 78.3C146.4 94.3 143 108.2 136.2 120C129.4 131.6 120.4 140.5 109.2 146.7C98.2 152.9 86.3 156 73.5 156ZM73.5 132.9C81.7 132.9 89.5 130.8 96.9 126.6C104.3 122.4 110.4 116.2 115.2 108C120 99.8 122.4 89.9 122.4 78.3C122.4 66.7 120 56.8 115.2 48.6C110.6 40.4 104.5 34.1 96.9 29.7C89.5 25.3 81.7 23.1 73.5 23.1C65.3 23.1 57.4 25.3 49.8 29.7C42.2 33.9 36 40.1 31.2 48.3C26.4 56.5 24 66.5 24 78.3C24 89.9 26.4 99.8 31.2 108C36 116.2 42.2 122.4 49.8 126.6C57.4 130.8 65.3 132.9 73.5 132.9ZM168.867 25.5V3H227.967V153H203.967V25.5H168.867Z" fill="url(#paint0_linear_8_36)"/>
<defs>
<linearGradient id="paint0_linear_8_36" x1="107" y1="-1.45546e-06" x2="95.0869" y2="175.599" gradientUnits="userSpaceOnUse">
<stop stop-color="#C34124"/>
<stop offset="1" stop-color="#0147FF" stop-opacity="0"/>
</linearGradient>
</defs>
</svg>
