<svg width="286" height="125" viewBox="0 0 286 125" fill="none" xmlns="http://www.w3.org/2000/svg">
<path d="M73.5 156C60.7 156 48.7 152.9 37.5 146.7C26.3 140.5 17.2 131.6 10.2 120C3.4 108.2 2.23517e-07 94.3 2.23517e-07 78.3C2.23517e-07 62.3 3.4 48.5 10.2 36.9C17.2 25.1 26.3 16 37.5 9.6C48.7 3.19999 60.7 -1.50204e-05 73.5 -1.50204e-05C86.3 -1.50204e-05 98.2 3.19999 109.2 9.6C120.4 16 129.4 25.1 136.2 36.9C143 48.5 146.4 62.3 146.4 78.3C146.4 94.3 143 108.2 136.2 120C129.4 131.6 120.4 140.5 109.2 146.7C98.2 152.9 86.3 156 73.5 156ZM73.5 132.9C81.7 132.9 89.5 130.8 96.9 126.6C104.3 122.4 110.4 116.2 115.2 108C120 99.8 122.4 89.9 122.4 78.3C122.4 66.7 120 56.8 115.2 48.6C110.6 40.4 104.5 34.1 96.9 29.7C89.5 25.3 81.7 23.1 73.5 23.1C65.3 23.1 57.4 25.3 49.8 29.7C42.2 33.9 36 40.1 31.2 48.3C26.4 56.5 24 66.5 24 78.3C24 89.9 26.4 99.8 31.2 108C36 116.2 42.2 122.4 49.8 126.6C57.4 130.8 65.3 132.9 73.5 132.9ZM239.367 107.7L199.167 136.8L197.067 130.5H285.267V153H174.267V130.5C187.267 120.7 198.767 112.4 208.767 105.6C218.967 98.8 227.567 92.7 234.567 87.3C241.567 81.9 246.867 76.4 250.467 70.8C254.267 65.2 256.167 58.7 256.167 51.3C256.167 45.7 255.067 40.8 252.867 36.6C250.667 32.2 247.267 28.8 242.667 26.4C238.267 23.8 232.467 22.5 225.267 22.5C216.467 22.5 208.867 25.3 202.467 30.9C196.067 36.5 192.867 43.8 192.867 52.8H171.867C170.867 42.8 172.667 33.9 177.267 26.1C182.067 18.1 188.667 11.8 197.067 7.19999C205.667 2.39999 215.067 -1.50204e-05 225.267 -1.50204e-05C234.067 -1.50204e-05 241.867 1.39999 248.667 4.19999C255.467 6.8 261.167 10.4 265.767 15C270.567 19.6 274.167 24.9 276.567 30.9C278.967 36.9 280.167 43.2 280.167 49.8C280.167 55.8 279.167 61.3 277.167 66.3C275.367 71.3 272.667 76.1 269.067 80.7C265.667 85.3 261.467 89.8 256.467 94.2C251.467 98.6 245.767 103.1 239.367 107.7Z" fill="url(#paint0_linear_9_380)"/>
<defs>
<linearGradient id="paint0_linear_9_380" x1="141" y1="-2" x2="125.29" y2="169.752" gradientUnits="userSpaceOnUse">
<stop stop-color="#C34124"/>
<stop offset="1" stop-color="#0147FF" stop-opacity="0"/>
</linearGradient>
</defs>
</svg>
