<svg width="287" height="125" viewBox="0 0 287 125" fill="none" xmlns="http://www.w3.org/2000/svg">
<path d="M73.5 156C60.7 156 48.7 152.9 37.5 146.7C26.3 140.5 17.2 131.6 10.2 120C3.4 108.2 2.23517e-07 94.3 2.23517e-07 78.3C2.23517e-07 62.3 3.4 48.5 10.2 36.9C17.2 25.1 26.3 16 37.5 9.6C48.7 3.19999 60.7 -1.50204e-05 73.5 -1.50204e-05C86.3 -1.50204e-05 98.2 3.19999 109.2 9.6C120.4 16 129.4 25.1 136.2 36.9C143 48.5 146.4 62.3 146.4 78.3C146.4 94.3 143 108.2 136.2 120C129.4 131.6 120.4 140.5 109.2 146.7C98.2 152.9 86.3 156 73.5 156ZM73.5 132.9C81.7 132.9 89.5 130.8 96.9 126.6C104.3 122.4 110.4 116.2 115.2 108C120 99.8 122.4 89.9 122.4 78.3C122.4 66.7 120 56.8 115.2 48.6C110.6 40.4 104.5 34.1 96.9 29.7C89.5 25.3 81.7 23.1 73.5 23.1C65.3 23.1 57.4 25.3 49.8 29.7C42.2 33.9 36 40.1 31.2 48.3C26.4 56.5 24 66.5 24 78.3C24 89.9 26.4 99.8 31.2 108C36 116.2 42.2 122.4 49.8 126.6C57.4 130.8 65.3 132.9 73.5 132.9ZM233.667 96L233.967 94.5C241.567 95.1 248.567 96.4 254.967 98.4C261.367 100.4 266.967 103.4 271.767 107.4C276.567 111.2 280.267 116.2 282.867 122.4C285.467 128.6 286.767 136.1 286.767 144.9C286.767 155.1 284.367 164.4 279.567 172.8C274.767 181.4 267.967 188.2 259.167 193.2C250.567 198.4 240.467 201 228.867 201C218.067 201 208.167 198.4 199.167 193.2C190.367 188.2 183.467 181.4 178.467 172.8C173.667 164.4 171.767 155.1 172.767 144.9H193.767C193.767 151.3 195.167 157 197.967 162C200.767 167.2 204.767 171.3 209.967 174.3C215.167 177.3 221.467 178.8 228.867 178.8C239.267 178.8 247.467 175.6 253.467 169.2C259.667 162.8 262.767 154.3 262.767 143.7C262.767 133.1 259.367 124.5 252.567 117.9C245.967 111.3 236.867 108 225.267 108H208.167V85.8H225.267C232.867 85.8 239.267 84.5 244.467 81.9C249.667 79.1 253.567 75.2 256.167 70.2C258.767 65.2 260.067 59.5 260.067 53.1C260.067 44.1 257.367 36.8 251.967 31.2C246.767 25.4 238.867 22.5 228.267 22.5C219.467 22.5 211.967 25.4 205.767 31.2C199.567 36.8 196.467 44.1 196.467 53.1H175.467C174.667 45.7 175.467 38.8 177.867 32.4C180.467 26 184.267 20.4 189.267 15.6C194.267 10.6 200.067 6.8 206.667 4.19999C213.467 1.39999 220.667 -1.50204e-05 228.267 -1.50204e-05C239.467 -1.50204e-05 249.267 2.39999 257.667 7.19999C266.067 11.8 272.567 18.1 277.167 26.1C281.767 34.1 284.067 43.1 284.067 53.1C284.067 61.3 282.767 68.2 280.167 73.8C277.767 79.2 274.267 83.5 269.667 86.7C265.267 89.9 259.967 92.2 253.767 93.6C247.567 95 240.867 95.8 233.667 96Z" fill="url(#paint0_linear_9_384)"/>
<defs>
<linearGradient id="paint0_linear_9_384" x1="124.365" y1="-1.45546e-06" x2="113.925" y2="175.787" gradientUnits="userSpaceOnUse">
<stop stop-color="#C34124"/>
<stop offset="1" stop-color="#0147FF" stop-opacity="0"/>
</linearGradient>
</defs>
</svg>
