<svg width="48" height="48" viewBox="0 0 48 48" fill="none" xmlns="http://www.w3.org/2000/svg">
<path id="Arrow" fill-rule="evenodd" clip-rule="evenodd" d="M24 48C37.2548 48 48 37.2549 48 24C48 10.7451 37.2548 0 24 0C10.7452 0 0 10.7451 0 24C0 37.2549 10.7452 48 24 48ZM22.1755 16.8649C21.616 16.8649 21.1625 17.3065 21.1625 17.8513C21.1625 18.3961 21.616 18.8378 22.1755 18.8378H28.3253L17.1616 29.7096C16.766 30.0948 16.766 30.7194 17.1616 31.1046C17.5571 31.4899 18.1985 31.4899 18.5941 31.1046L29.7578 20.2329V26.2218C29.7578 26.7667 30.2114 27.2083 30.7708 27.2083C31.3303 27.2083 31.7838 26.7667 31.7838 26.2218V17.8513C31.7838 17.3065 31.3303 16.8649 30.7708 16.8649H22.1755Z" fill="white" fill-opacity="0.8"/>
</svg>
