<svg width="660" height="60" viewBox="0 0 660 60" fill="none" xmlns="http://www.w3.org/2000/svg">
<g filter="url(#filter0_i_106_2533)">
<path d="M30.0775 0.199996C38.6455 0.199996 45.4215 2.356 50.4055 6.668C55.3895 10.924 57.8815 17.028 57.8815 24.98H40.1575C40.1575 21.62 39.2615 18.96 37.4695 17C35.7335 15.04 33.2415 14.06 29.9935 14.06C26.2415 14.06 23.4695 15.236 21.6775 17.588C19.9415 19.94 19.0735 23.216 19.0735 27.416V32.792C19.0735 36.936 19.9415 40.212 21.6775 42.62C23.4695 44.972 26.1855 46.148 29.8255 46.148C33.4095 46.148 36.1255 45.224 37.9735 43.376C39.8215 41.528 40.7455 38.924 40.7455 35.564H57.8815C57.8815 43.46 55.4455 49.508 50.5735 53.708C45.7575 57.908 38.9255 60.008 30.0775 60.008C20.2215 60.008 12.7455 57.488 7.64948 52.448C2.60948 47.408 0.0894789 39.96 0.0894789 30.104C0.0894789 20.248 2.60948 12.8 7.64948 7.76C12.7455 2.72 20.2215 0.199996 30.0775 0.199996ZM94.9524 0.199996C104.92 0.199996 112.62 2.748 118.052 7.844C123.484 12.94 126.2 20.36 126.2 30.104C126.2 39.848 123.484 47.268 118.052 52.364C112.62 57.46 104.92 60.008 94.9524 60.008C84.9844 60.008 77.2844 57.488 71.8524 52.448C66.4764 47.352 63.7884 39.904 63.7884 30.104C63.7884 20.304 66.4764 12.884 71.8524 7.844C77.2844 2.748 84.9844 0.199996 94.9524 0.199996ZM94.9524 14.06C90.9764 14.06 87.9524 15.264 85.8804 17.672C83.8084 20.08 82.7724 23.328 82.7724 27.416V32.792C82.7724 36.88 83.8084 40.128 85.8804 42.536C87.9524 44.944 90.9764 46.148 94.9524 46.148C98.9284 46.148 101.952 44.944 104.024 42.536C106.152 40.128 107.216 36.88 107.216 32.792V27.416C107.216 23.328 106.152 20.08 104.024 17.672C101.952 15.264 98.9284 14.06 94.9524 14.06ZM184.161 59V38.168C184.161 35.592 184.245 32.96 184.413 30.272C184.637 27.528 184.861 25.232 185.085 23.384C185.309 21.536 185.449 20.36 185.505 19.856H185.169L174.501 59H159.969L149.217 19.94H148.881C148.937 20.444 149.077 21.62 149.301 23.468C149.581 25.26 149.833 27.528 150.057 30.272C150.281 32.96 150.393 35.592 150.393 38.168V59H133.341V1.208H159.549L168.285 34.556H168.621L177.273 1.208H202.557V59H184.161ZM213.001 59V1.208H231.565V59H213.001ZM284.458 59L260.182 30.944V59H243.13V1.208H259.342L283.618 29.684V1.208H300.67V59H284.458ZM340.486 0.199996C346.03 0.199996 351.014 1.04 355.438 2.72C359.862 4.4 363.362 6.892 365.938 10.196C368.57 13.444 369.886 17.42 369.886 22.124H352.162C352.162 19.716 351.098 17.784 348.97 16.328C346.842 14.816 344.266 14.06 341.242 14.06C336.874 14.06 333.57 15.236 331.33 17.588C329.09 19.884 327.97 23.16 327.97 27.416V32.792C327.97 37.048 329.09 40.352 331.33 42.704C333.57 45 336.874 46.148 341.242 46.148C344.266 46.148 346.842 45.448 348.97 44.048C351.098 42.592 352.162 40.744 352.162 38.504H339.058V26.744H369.886V59H360.31L358.462 53.288C353.198 57.768 346.31 60.008 337.798 60.008C328.222 60.008 321.026 57.516 316.21 52.532C311.394 47.492 308.986 40.016 308.986 30.104C308.986 20.304 311.702 12.884 317.134 7.844C322.622 2.748 330.406 0.199996 340.486 0.199996ZM430.284 0.199996C437.676 0.199996 443.752 1.712 448.512 4.736C453.272 7.704 455.708 12.128 455.82 18.008V19.016H438.432V18.68C438.432 17 437.816 15.6 436.584 14.48C435.352 13.36 433.476 12.8 430.956 12.8C428.492 12.8 426.588 13.164 425.244 13.892C423.956 14.62 423.312 15.516 423.312 16.58C423.312 18.092 424.208 19.212 426 19.94C427.792 20.668 430.676 21.424 434.652 22.208C439.3 23.16 443.108 24.168 446.076 25.232C449.1 26.24 451.732 27.92 453.972 30.272C456.212 32.624 457.36 35.816 457.416 39.848C457.416 46.68 455.092 51.748 450.444 55.052C445.852 58.356 439.692 60.008 431.964 60.008C422.948 60.008 415.92 58.496 410.88 55.472C405.896 52.448 403.404 47.1 403.404 39.428H420.96C420.96 42.34 421.716 44.3 423.228 45.308C424.74 46.26 427.092 46.736 430.284 46.736C432.636 46.736 434.568 46.484 436.08 45.98C437.648 45.476 438.432 44.44 438.432 42.872C438.432 41.472 437.564 40.436 435.828 39.764C434.148 39.036 431.376 38.28 427.512 37.496C422.808 36.488 418.916 35.452 415.836 34.388C412.756 33.268 410.068 31.448 407.772 28.928C405.476 26.408 404.328 22.992 404.328 18.68C404.328 12.352 406.764 7.704 411.636 4.736C416.564 1.712 422.78 0.199996 430.284 0.199996ZM493.677 0.199996C503.645 0.199996 511.345 2.748 516.777 7.844C522.209 12.94 524.925 20.36 524.925 30.104C524.925 39.848 522.209 47.268 516.777 52.364C511.345 57.46 503.645 60.008 493.677 60.008C483.709 60.008 476.009 57.488 470.577 52.448C465.201 47.352 462.513 39.904 462.513 30.104C462.513 20.304 465.201 12.884 470.577 7.844C476.009 2.748 483.709 0.199996 493.677 0.199996ZM493.677 14.06C489.701 14.06 486.677 15.264 484.605 17.672C482.533 20.08 481.497 23.328 481.497 27.416V32.792C481.497 36.88 482.533 40.128 484.605 42.536C486.677 44.944 489.701 46.148 493.677 46.148C497.653 46.148 500.677 44.944 502.749 42.536C504.877 40.128 505.941 36.88 505.941 32.792V27.416C505.941 23.328 504.877 20.08 502.749 17.672C500.677 15.264 497.653 14.06 493.677 14.06ZM561.969 0.199996C571.937 0.199996 579.637 2.748 585.069 7.844C590.501 12.94 593.217 20.36 593.217 30.104C593.217 39.848 590.501 47.268 585.069 52.364C579.637 57.46 571.937 60.008 561.969 60.008C552.001 60.008 544.301 57.488 538.869 52.448C533.493 47.352 530.805 39.904 530.805 30.104C530.805 20.304 533.493 12.884 538.869 7.844C544.301 2.748 552.001 0.199996 561.969 0.199996ZM561.969 14.06C557.993 14.06 554.969 15.264 552.897 17.672C550.825 20.08 549.789 23.328 549.789 27.416V32.792C549.789 36.88 550.825 40.128 552.897 42.536C554.969 44.944 557.993 46.148 561.969 46.148C565.945 46.148 568.969 44.944 571.041 42.536C573.169 40.128 574.233 36.88 574.233 32.792V27.416C574.233 23.328 573.169 20.08 571.041 17.672C568.969 15.264 565.945 14.06 561.969 14.06ZM642.862 59L618.586 30.944V59H601.534V1.208H617.746L642.022 29.684V1.208H659.074V59H642.862Z" fill="#1C1A1A"/>
</g>
<defs>
<filter id="filter0_i_106_2533" x="0.0895996" y="0.200012" width="658.985" height="61.808" filterUnits="userSpaceOnUse" color-interpolation-filters="sRGB">
<feFlood flood-opacity="0" result="BackgroundImageFix"/>
<feBlend mode="normal" in="SourceGraphic" in2="BackgroundImageFix" result="shape"/>
<feColorMatrix in="SourceAlpha" type="matrix" values="0 0 0 0 0 0 0 0 0 0 0 0 0 0 0 0 0 0 127 0" result="hardAlpha"/>
<feOffset dy="2"/>
<feGaussianBlur stdDeviation="2"/>
<feComposite in2="hardAlpha" operator="arithmetic" k2="-1" k3="1"/>
<feColorMatrix type="matrix" values="0 0 0 0 1 0 0 0 0 1 0 0 0 0 1 0 0 0 0.08 0"/>
<feBlend mode="normal" in2="shape" result="effect1_innerShadow_106_2533"/>
</filter>
</defs>
</svg>
