<svg width="129" height="48" viewBox="0 0 129 48" fill="none" xmlns="http://www.w3.org/2000/svg">
<g id="Company logo" clip-path="url(#clip0_8_67)">
<g id="Vector">
<path d="M14.0405 13.1062V22.1939H4.62362V13.1062H0.152832V34.7995H4.62362V26.0069H14.0405V34.7995H18.5113V13.1062H14.0405Z" fill="white"/>
<path d="M32.8196 27.7867C32.8196 28.6561 32.4299 29.4899 31.7363 30.1046C31.0426 30.7194 30.1019 31.0647 29.1209 31.0647C28.14 31.0647 27.1992 30.7194 26.5056 30.1046C25.812 29.4899 25.4223 28.6561 25.4223 27.7867V18.4951H21.1815V27.7867C21.1815 29.6511 22.0172 31.4392 23.5047 32.7575C24.9922 34.0759 27.0096 34.8165 29.1133 34.8165C31.2169 34.8165 33.2344 34.0759 34.7219 32.7575C36.2094 31.4392 37.045 29.6511 37.045 27.7867V18.4951H32.8196V27.7867Z" fill="white"/>
<path d="M64.2409 19.4527C64.2409 17.5482 65.6626 16.9444 67.22 16.9444C68.4752 16.9444 70.1334 17.7908 71.2177 18.8178L73.9952 15.9174C72.6086 14.2555 69.796 13.1062 67.4938 13.1062C62.8938 13.1062 59.5664 15.4942 59.5664 19.4527C59.5664 26.797 69.6953 24.4673 69.6953 28.5773C69.6953 29.845 68.3065 30.9652 66.7162 30.9652C64.2081 30.9652 63.3954 29.878 62.2432 28.7287L59.1612 31.569C61.1326 33.7143 63.5641 34.8034 66.4774 34.8034C70.8475 34.8034 74.3632 32.3863 74.3632 28.6084C74.3632 20.4545 64.2344 22.988 64.2344 19.4527" fill="white"/>
<path d="M126.902 31.3339C124.396 31.3339 123.684 30.3729 123.684 28.9013V22.3878H127.579V19.0874H123.684V14.7329L119.384 16.4432V29.7108C119.384 33.1044 122.026 34.8148 125.649 34.8148C126.217 34.824 126.785 34.7837 127.345 34.6944L128.394 31.2717C127.921 31.3008 127.378 31.33 126.902 31.33" fill="white"/>
<path d="M48.9623 18.6046C46.8616 18.6046 45.3962 19.1443 43.979 20.3771V13.2366H39.7316V26.4712C39.7316 31.4257 43.7731 34.8193 48.3139 34.8193C53.3521 34.8193 57.7834 31.3655 57.7834 26.7139C57.7834 22.1205 53.7047 18.6066 48.9623 18.6066V18.6046ZM48.936 31.0316C47.9829 31.0316 47.0512 30.7811 46.2587 30.3118C45.4662 29.8425 44.8485 29.1754 44.4838 28.395C44.119 27.6145 44.0236 26.7558 44.2096 25.9272C44.3955 25.0987 44.8545 24.3377 45.5284 23.7404C46.2024 23.143 47.0611 22.7363 47.9959 22.5715C48.9307 22.4067 49.8996 22.4912 50.7802 22.8145C51.6608 23.1378 52.4134 23.6852 52.943 24.3876C53.4725 25.09 53.7551 25.9158 53.7551 26.7605C53.7551 27.8933 53.2474 28.9796 52.3436 29.7806C51.4399 30.5816 50.2141 31.0316 48.936 31.0316Z" fill="white"/>
<path d="M95.0807 26.515C95.0807 21.8557 90.6581 18.4096 85.6112 18.4096C81.0703 18.4096 77.0289 21.8032 77.0289 26.7577V40.0001H81.2762V32.8499C82.6913 34.0807 84.1589 34.6224 86.2574 34.6224C90.9998 34.6224 95.0785 31.1103 95.0785 26.515H95.0807ZM91.0589 26.4684C91.0589 27.3132 90.7763 28.139 90.2468 28.8413C89.7172 29.5437 88.9646 30.0912 88.084 30.4144C87.2035 30.7377 86.2345 30.8223 85.2997 30.6575C84.3649 30.4927 83.5062 30.0859 82.8323 29.4886C82.1583 28.8912 81.6993 28.1302 81.5134 27.3017C81.3274 26.4732 81.4229 25.6144 81.7876 24.834C82.1524 24.0535 82.77 23.3865 83.5625 22.9171C84.355 22.4478 85.2867 22.1973 86.2399 22.1973C87.518 22.1973 88.7437 22.6473 89.6474 23.4483C90.5512 24.2493 91.0589 25.3357 91.0589 26.4684Z" fill="white"/>
</g>
<path id="Vector_2" d="M108.759 18.3496V14.6066C109.317 14.3756 109.79 14.0088 110.122 13.5489C110.454 13.089 110.632 12.555 110.634 12.009V11.9216C110.632 11.1587 110.289 10.4276 109.68 9.88807C109.072 9.34858 108.247 9.04458 107.386 9.04254H107.287C106.426 9.04458 105.601 9.34858 104.993 9.88807C104.384 10.4276 104.041 11.1587 104.039 11.9216V12.009C104.041 12.555 104.219 13.089 104.551 13.5489C104.883 14.0088 105.356 14.3756 105.914 14.6066V18.3496C104.309 18.5671 102.798 19.1565 101.533 20.0581L89.9363 12.0614C90.0189 11.7976 90.0631 11.5256 90.0678 11.2519C90.0686 10.6095 89.8546 9.98128 89.4526 9.44673C89.0506 8.91217 88.4789 8.49527 87.8095 8.24873C87.1402 8.00219 86.4035 7.93708 85.6924 8.06166C84.9814 8.18623 84.328 8.49487 83.8149 8.94857C83.3017 9.40226 82.9519 9.98063 82.8097 10.6105C82.6674 11.2404 82.7391 11.8936 83.0157 12.4873C83.2923 13.0811 83.7613 13.5889 84.3635 13.9464C84.9656 14.3039 85.6739 14.4952 86.3987 14.496C87.0354 14.4939 87.6601 14.3432 88.2102 14.0591L99.6117 21.9257C98.5848 23.2989 98.049 24.9146 98.0744 26.5619C98.0998 28.2091 98.6852 29.8113 99.7541 31.1591L96.2844 34.2343C96.0058 34.1557 95.7158 34.1138 95.4235 34.11C94.8278 34.11 94.2455 34.2666 93.7502 34.5599C93.2549 34.8532 92.8688 35.2701 92.6409 35.7579C92.4129 36.2457 92.3533 36.7824 92.4695 37.3002C92.5857 37.818 92.8725 38.2937 93.2938 38.667C93.715 39.0403 94.2517 39.2946 94.8359 39.3976C95.4202 39.5006 96.0258 39.4477 96.5761 39.2457C97.1265 39.0436 97.5969 38.7015 97.9278 38.2625C98.2588 37.8235 98.4354 37.3074 98.4354 36.7794C98.4314 36.5204 98.3842 36.2633 98.2952 36.0165L101.728 32.9743C102.848 33.7328 104.149 34.2544 105.532 34.4993C106.915 34.7441 108.342 34.7058 109.705 34.3871C111.069 34.0685 112.332 33.478 113.398 32.6607C114.465 31.8434 115.307 30.8209 115.86 29.6713C116.412 28.5217 116.661 27.2754 116.588 26.0275C116.514 24.7796 116.12 23.5631 115.435 22.4709C114.75 21.3786 113.792 20.4395 112.635 19.7253C111.478 19.0111 110.153 18.5405 108.759 18.3496ZM107.338 30.6621C106.398 30.6621 105.48 30.4152 104.699 29.9527C103.918 29.4902 103.31 28.8329 102.95 28.0638C102.591 27.2947 102.497 26.4484 102.68 25.632C102.863 24.8155 103.315 24.0655 103.98 23.4769C104.644 22.8883 105.49 22.4874 106.411 22.325C107.332 22.1626 108.287 22.2459 109.155 22.5645C110.023 22.8831 110.764 23.4225 111.286 24.1147C111.808 24.8069 112.087 25.6206 112.087 26.4531C112.087 27.5694 111.586 28.6399 110.696 29.4293C109.805 30.2186 108.597 30.6621 107.338 30.6621Z" fill="white"/>
</g>
<defs>
<clipPath id="clip0_8_67">
<rect width="128.626" height="48" fill="white" transform="translate(0.152832)"/>
</clipPath>
</defs>
</svg>
