<svg width="147" height="48" viewBox="0 0 147 48" fill="none" xmlns="http://www.w3.org/2000/svg">
<g clip-path="url(#clip0_8_70)">
<path d="M51.3149 34.7749V20.2199H51.6075L63.5615 34.7749H67.3232V13.4006H63.1435V27.919H62.8509L50.897 13.4006H47.1352V34.7749H51.3149ZM79.1517 35.1049C84.6689 35.1049 88.0545 31.9519 88.0545 26.6725C88.0545 21.4297 84.6689 18.2401 79.1517 18.2401C73.6763 18.2401 70.249 21.4297 70.249 26.6725C70.2908 31.9519 73.6345 35.1049 79.1517 35.1049ZM79.1517 32.0252C76.2259 32.0252 74.5541 30.0821 74.5541 26.6725C74.5541 23.2995 76.2259 21.3198 79.1517 21.3198C82.0775 21.3198 83.7494 23.2995 83.7494 26.6725C83.7494 30.0821 82.0775 32.0252 79.1517 32.0252ZM91.858 14.6105V18.68H88.9323V21.6131H91.858V30.4487C91.858 33.6017 93.5299 34.8483 97.7932 34.8483C98.5873 34.8483 99.3815 34.7749 100.008 34.6649V31.8053C99.5069 31.8419 99.1725 31.8786 98.5874 31.8786C96.8319 31.8786 96.0377 31.182 96.0377 29.5688V21.6131H100.008V18.68H96.0377V14.6105H91.858ZM102.516 34.7749H106.696V18.5701H102.516V34.7749ZM104.606 15.8937C105.985 15.8937 107.114 14.9038 107.114 13.6939C107.114 12.4474 105.985 11.4575 104.606 11.4575C103.227 11.4575 102.098 12.4474 102.098 13.6939C102.098 14.9038 103.227 15.8937 104.606 15.8937ZM118.148 35.1049C123.666 35.1049 127.051 31.9519 127.051 26.6725C127.051 21.4297 123.666 18.2401 118.148 18.2401C112.673 18.2401 109.246 21.4297 109.246 26.6725C109.246 31.9519 112.589 35.1049 118.148 35.1049ZM118.148 32.0252C115.223 32.0252 113.551 30.0821 113.551 26.6725C113.551 23.2995 115.223 21.3198 118.148 21.3198C121.032 21.3198 122.746 23.2995 122.746 26.6725C122.704 30.0821 121.032 32.0252 118.148 32.0252ZM129.517 34.7749H133.697V25.3526C133.697 22.9696 135.285 21.4664 137.751 21.4664C140.301 21.4664 141.471 22.7129 141.471 25.1693V34.7749H145.651V24.2894C145.651 20.4032 143.394 18.2401 139.298 18.2401C136.539 18.2401 134.7 19.34 133.822 21.1731H133.53V18.5701H129.475C129.517 18.5701 129.517 34.7749 129.517 34.7749Z" fill="white"/>
<path fill-rule="evenodd" clip-rule="evenodd" d="M7.05904 12.0326C8.27555 12.9024 8.71556 12.8337 10.9933 12.6964L32.4504 11.5519C32.9163 11.5519 32.5281 11.1399 32.3728 11.0941L28.8009 8.82806C28.1279 8.37028 27.1961 7.82093 25.462 7.95826L4.70367 9.30874C3.95306 9.37741 3.79776 9.72075 4.10836 9.97254L7.05904 12.0326ZM8.3532 16.4502V36.4098C8.3532 37.4857 8.94851 37.8748 10.3203 37.8061L33.8999 36.593C35.2717 36.5243 35.427 35.7918 35.427 34.922V15.0998C35.427 14.23 35.0387 13.7493 34.2105 13.818L9.5697 15.0998C8.66379 15.1684 8.3532 15.5804 8.3532 16.4502ZM31.6221 17.5261C31.7774 18.1212 31.6221 18.7392 30.9492 18.8079L29.8103 19.0139V33.7547C28.8268 34.2125 27.9209 34.4871 27.1444 34.4871C25.9279 34.4871 25.6173 34.1438 24.7113 33.1367L17.2829 22.8135V32.7933L19.6382 33.2511C19.6382 33.2511 19.6382 34.4642 17.7488 34.4642L12.5204 34.7389C12.3651 34.4642 12.5204 33.8005 13.038 33.6631L14.4099 33.3198V20.1355L12.5204 19.9981C12.3651 19.403 12.7533 18.5332 13.8145 18.4645L19.4312 18.1212L27.1702 28.5588V19.3343L25.2031 19.1283C25.0478 18.3959 25.669 17.8465 26.4196 17.7778L31.6221 17.5261ZM2.9695 7.47759L24.5819 6.08133C27.222 5.87532 27.9209 6.01266 29.5774 7.08847L36.4623 11.3688C37.6011 12.1013 37.9894 12.3073 37.9894 13.1084V36.6159C37.9894 38.0808 37.3941 38.9506 35.2717 39.0879L10.1909 40.4384C8.58615 40.5071 7.83553 40.3011 7.00727 39.3626L1.90829 33.5258C1.00238 32.45 0.614136 31.6488 0.614136 30.7104V9.81231C0.614136 8.59917 1.23533 7.61492 2.9695 7.47759Z" fill="white"/>
</g>
<defs>
<clipPath id="clip0_8_70">
<rect width="145.551" height="48" fill="white" transform="translate(0.614136)"/>
</clipPath>
</defs>
</svg>
