<svg width="128" height="48" viewBox="0 0 128 48" fill="none" xmlns="http://www.w3.org/2000/svg">
<g id="Company logo" clip-path="url(#clip0_8_65)">
<path id="Vector" fill-rule="evenodd" clip-rule="evenodd" d="M126.521 30.5633C121.265 38.4606 112.942 36.1691 110.442 34.3749C109.378 35.0147 107.513 36.417 105.025 36.255C99.7275 35.9104 97.8304 29.2007 97.8304 29.2007C97.8685 29.2275 96.2524 29.6949 95.379 29.6866C95.3677 31.6542 93.4486 36.3546 88.2693 36.2945C82.4573 36.2273 81.2758 28.5531 81.2758 28.5531C81.2758 28.5531 80.6974 29.2649 78.4983 29.9739C78.609 28.4622 78.5281 36.0644 71.5622 36.1761C66.0552 36.2646 64.5687 28.4348 64.5687 28.4348C64.5687 28.4348 63.6134 29.3143 61.7619 29.6194C61.8796 28.0831 61.6883 36.2019 54.7216 36.1761C50.0136 36.1588 48.4047 31.353 48.5298 30.686C48.6895 29.8359 46.9387 36.2957 42.3656 36.195C40.4784 36.1459 39.0714 34.9349 38.1886 33.3204C37.0067 34.5189 35.2908 36.195 33.3659 36.195C29.9106 36.195 28.3873 33.6337 28.6453 26.3179C28.6673 25.4502 28.5967 25.109 27.6234 24.9792C27.0393 24.8928 26.4411 24.7292 25.8081 24.643C25.6052 25.243 23.8845 35.9998 17.9676 36.204C15.9826 36.2725 14.8972 34.7485 14.0059 33.6174C12.6395 35.2194 10.8358 36.255 8.26626 36.255C3.91367 36.255 0.94812 33.1365 0.94812 29.2895C0.94812 25.4425 3.91367 22.3242 8.26626 22.3242C9.03584 22.3242 9.25188 22.422 9.95494 22.6038C8.50907 10.9365 11.9236 9.11303 14.9106 9.11303C17.7783 9.11303 22.6775 15.012 15.7839 29.9751C17.3144 34.4381 20.6139 34.1857 22.1994 24.9982C22.5221 23.1307 21.6592 20.6105 23.0013 20.2588C25.4546 19.616 25.7149 21.5446 26.8652 21.866C28.0815 22.2056 28.7914 22.1724 29.9591 22.3885C31.9543 22.7339 32.7329 23.6838 32.4898 25.7996C32.1979 28.4767 31.6872 32.3732 33.2443 32.8481C34.3671 33.1931 36.4171 31.1293 36.7768 30.0001C37.1364 28.871 37.2116 28.4845 37.2435 27.6563C37.2922 25.8861 37.3532 24.5886 37.6938 23.2499C37.8396 22.7319 38.0057 22.3888 38.667 22.3654C39.2111 22.3531 40.2062 22.2079 40.6442 22.51C41.228 22.8988 41.1551 23.2933 41.088 24.3316C40.4091 39.1353 45.635 31.7452 47.1932 25.8279C46.6384 19.1369 47.0193 9.23555 51.7502 9.06949C54.2106 8.98313 55.2983 10.7301 55.4179 12.034C55.7564 15.7168 53.8607 21.8172 51.3677 25.9197C49.9429 34.2907 57.5974 35.9459 58.8214 29.2642C56.8188 28.4202 54.6544 25.0044 56.4156 23.3397C57.4039 22.4055 61.5177 23.7476 61.585 26.6748C63.6029 26.1965 63.8723 25.1867 63.9003 25.354C63.3456 18.663 63.8601 9.23564 68.5913 9.06957C71.0514 8.98321 72.1389 10.7301 72.2586 12.0341C72.597 15.7168 70.7014 21.8173 68.2087 25.9199C66.7837 34.2907 74.4383 35.946 75.6621 29.2643C74.1793 29.0107 71.0494 25.3775 72.8553 23.3398C73.8204 22.2509 77.9191 24.5154 78.378 26.7717C80.3165 26.2855 80.5797 25.3078 80.6075 25.4724C80.0527 18.7816 80.5672 9.35422 85.2983 9.18815C87.7584 9.10179 88.846 10.8487 88.9656 12.1527C89.304 15.8354 87.4084 21.936 84.9154 26.0385C83.4908 34.4095 91.1452 36.0644 92.3693 29.3827C90.3317 29.082 87.4359 25.2458 89.7666 23.2833C90.6978 22.4992 94.2558 24.5346 95.0887 26.8568C96.2459 26.8173 96.9663 26.4636 97.1207 26.4279C95.2732 18.573 96.6486 9.14836 101.738 9.06969C104.489 9.02721 107.178 10.3877 105.998 17.8606C104.871 24.9906 100.821 27.9827 100.83 28.0285C101.066 28.8827 103.144 36.0312 108.378 32.2594C108.107 31.7157 107.836 31.1603 107.684 30.4874C106.817 26.5677 108.52 22.1404 113.151 21.4249C115.805 21.0149 118.304 22.1598 118.699 24.741C119.35 28.9645 115.047 32.0233 113.41 32.6868C112.677 32.3178 120.054 36.5107 124.431 28.108C124.685 27.6282 124.991 27.6689 125.388 27.9162C125.668 28.0908 127.263 29.4299 126.521 30.5633ZM11.4324 28.2517C11.2096 27.6615 10.7525 26.361 10.5909 25.7976C9.70064 25.1114 9.06522 25 7.92252 25C5.38309 25 3.88842 27.0809 3.88842 29.3247C3.88842 31.5684 5.51675 33.6496 8.05619 33.6496C10.2569 33.6496 11.9319 32.3235 12.4429 30.4462C12.0852 29.7143 11.7304 29.0417 11.4324 28.2517ZM14.8484 12.2015C13.0641 12.2015 12.4588 15.974 12.5762 19.1924C12.6801 22.0378 13.5772 24.5428 14.0426 25.6653C14.1608 25.8059 14.1388 25.7144 14.2443 25.8636C17.3425 19.8472 16.0575 12.2015 14.8484 12.2015ZM52.005 12.32C49.6988 12.0855 49.7137 20.6001 50 22.51C51.1978 20.8118 53.2784 12.7772 52.005 12.32ZM68.8456 12.32C66.5394 12.0855 66.5543 20.6001 66.8408 22.51C68.0384 20.8118 70.1192 12.7772 68.8456 12.32ZM85.5529 12.4384C83.2465 12.204 83.2614 20.7186 83.5479 22.6287C84.7455 20.9303 86.8263 12.8956 85.5529 12.4384ZM101.993 11.8215C98.3994 12.461 99.2361 23.0789 99.7818 24.9412C104.014 19.789 104.101 11.628 101.993 11.8215ZM115.459 25.0903C115.276 24.4133 114.363 24.0515 113.732 24.1407C111.928 24.359 110.178 26.3505 110.855 29.3824C111.006 30.0576 111.384 30.6792 111.377 30.6585C115.415 28.2577 115.758 26.3659 115.459 25.0903ZM39.3743 20.0218C38.8586 20.0219 38.3546 19.8864 37.9258 19.6326C37.497 19.3787 37.1628 19.0179 36.9653 18.5957C36.7679 18.1735 36.7163 17.7089 36.8169 17.2607C36.9173 16.8124 37.1657 16.4007 37.5303 16.0775C37.8949 15.7543 38.3594 15.5342 38.8651 15.4451C39.3708 15.3559 39.8951 15.4016 40.3715 15.5765C40.8479 15.7514 41.255 16.0476 41.5415 16.4276C41.8279 16.8076 41.9808 17.2544 41.9808 17.7114C41.9808 18.0148 41.9135 18.3152 41.7824 18.5955C41.6515 18.8758 41.4595 19.1305 41.2174 19.345C40.9753 19.5596 40.6881 19.7298 40.3718 19.8459C40.0556 19.962 39.7167 20.0218 39.3743 20.0218Z" fill="white"/>
</g>
<defs>
<clipPath id="clip0_8_65">
<rect width="126.369" height="48" fill="white" transform="translate(0.94812)"/>
</clipPath>
</defs>
</svg>
