<svg width="30" height="30" viewBox="0 0 30 30" fill="none" xmlns="http://www.w3.org/2000/svg">
<g id="vector">
<path fill-rule="evenodd" clip-rule="evenodd" d="M9.54821 9.54821C10.9941 8.10231 12.9552 7.29 15 7.29C17.0448 7.29 19.0059 8.10231 20.4518 9.54821C21.8977 10.9941 22.71 12.9552 22.71 15C22.71 17.0448 21.8977 19.0059 20.4518 20.4518C19.0059 21.8977 17.0448 22.71 15 22.71C12.9552 22.71 10.9941 21.8977 9.54821 20.4518C8.1023 19.0059 7.29 17.0448 7.29 15C7.29 12.9552 8.1023 10.9941 9.54821 9.54821ZM13.0847 19.624C13.6919 19.8755 14.3427 20.005 15 20.005C16.3274 20.005 17.6004 19.4777 18.5391 18.5391C19.4777 17.6005 20.005 16.3274 20.005 15C20.005 13.6726 19.4777 12.3996 18.5391 11.4609C17.6004 10.5223 16.3274 9.995 15 9.995C14.3427 9.995 13.6919 10.1245 13.0847 10.376C12.4774 10.6275 11.9257 10.9962 11.4609 11.4609C10.9962 11.9257 10.6275 12.4774 10.376 13.0847C10.1245 13.6919 9.995 14.3427 9.995 15C9.995 15.6573 10.1245 16.3081 10.376 16.9153C10.6275 17.5226 10.9962 18.0743 11.4609 18.5391C11.9257 19.0038 12.4774 19.3725 13.0847 19.624Z" fill="white" fill-opacity="0.8"/>
<path d="M24.4192 8.43871C24.761 8.09692 24.953 7.63336 24.953 7.15C24.953 6.66665 24.761 6.20309 24.4192 5.8613C24.0774 5.51952 23.6139 5.3275 23.1305 5.3275C22.6471 5.3275 22.1836 5.51952 21.8418 5.8613C21.5 6.20309 21.308 6.66665 21.308 7.15C21.308 7.63336 21.5 8.09692 21.8418 8.43871C22.1836 8.78049 22.6471 8.9725 23.1305 8.9725C23.6139 8.9725 24.0774 8.78049 24.4192 8.43871Z" fill="white" fill-opacity="0.8"/>
<path fill-rule="evenodd" clip-rule="evenodd" d="M8.816 0.0899998C10.416 0.017 10.926 0 15 0C19.075 0 19.584 0.0179998 21.183 0.0899998C22.78 0.163 23.872 0.418 24.826 0.787C25.8265 1.16386 26.7329 1.75422 27.482 2.517C28.245 3.26632 28.8354 4.17306 29.212 5.174C29.583 6.128 29.837 7.219 29.91 8.816C29.983 10.416 30 10.926 30 15C30 19.074 29.983 19.584 29.91 21.184C29.837 22.781 29.583 23.872 29.213 24.826C28.8361 25.8265 28.2458 26.7329 27.483 27.482C26.733 28.246 25.826 28.836 24.826 29.212C23.872 29.583 22.781 29.837 21.184 29.91C19.584 29.983 19.074 30 15 30C10.926 30 10.416 29.983 8.816 29.91C7.219 29.837 6.128 29.583 5.174 29.213C4.17351 28.8361 3.26715 28.2458 2.518 27.483C1.754 26.733 1.164 25.826 0.788 24.826C0.417 23.872 0.163 22.781 0.0899998 21.184C0.017 19.584 0 19.075 0 15C0 10.925 0.0179998 10.416 0.0899998 8.817C0.163 7.22 0.418 6.128 0.787 5.174C1.16386 4.17349 1.75422 3.26713 2.517 2.518C3.267 1.754 4.174 1.164 5.174 0.788C6.128 0.417 7.219 0.163 8.816 0.0899998ZM21.062 2.79C19.48 2.718 19.005 2.703 15 2.703C10.995 2.703 10.52 2.718 8.938 2.79C7.476 2.857 6.682 3.101 6.153 3.307C5.50141 3.54698 4.91194 3.93004 4.428 4.428C3.904 4.953 3.578 5.453 3.307 6.153C3.1 6.682 2.857 7.476 2.79 8.938C2.718 10.52 2.703 10.995 2.703 15C2.703 19.005 2.718 19.48 2.79 21.062C2.857 22.524 3.101 23.318 3.307 23.847C3.54713 24.4985 3.93018 25.088 4.428 25.572C4.91201 26.0699 5.50146 26.4529 6.153 26.693C6.682 26.9 7.476 27.143 8.938 27.21C10.52 27.282 10.994 27.297 15 27.297C19.006 27.297 19.48 27.282 21.062 27.21C22.524 27.143 23.318 26.899 23.847 26.693C24.4986 26.4531 25.0881 26.07 25.572 25.572C26.0699 25.088 26.4529 24.4985 26.693 23.847C26.9 23.318 27.143 22.524 27.21 21.062C27.282 19.48 27.297 19.005 27.297 15C27.297 10.995 27.282 10.52 27.21 8.938C27.143 7.476 26.899 6.682 26.693 6.153C26.422 5.453 26.097 4.953 25.572 4.428C25.047 3.904 24.547 3.578 23.847 3.307C23.318 3.1 22.524 2.857 21.062 2.79Z" fill="white" fill-opacity="0.8"/>
</g>
</svg>
