<svg width="59" height="48" viewBox="0 0 59 48" fill="none" xmlns="http://www.w3.org/2000/svg">
<g id="itc-logo" clip-path="url(#clip0_26_16)">
<path id="Vector" d="M6.1033 48H10.7117V26.6862H0.00213623V41.9266C0.00213612 43.537 0.644867 45.0814 1.78899 46.2203C2.93312 47.3593 4.48497 47.9994 6.1033 48Z" fill="#1C1A1A"/>
<path id="Vector_2" d="M59 23.9726H24.1463V48H13.4367V23.9726H0V19.3868C0 17.7761 0.643031 16.2313 1.78764 15.0923C2.93224 13.9533 4.48466 13.3135 6.10337 13.3135H48.2584L59 23.9726Z" fill="#1C1A1A"/>
<path id="Vector_3" d="M58.9999 37.3409L48.2583 47.9978H32.7493C31.9768 47.9979 31.212 47.8466 30.4983 47.5526C29.7847 47.2585 29.1363 46.8274 28.5901 46.2839C28.0439 45.7404 27.6107 45.0952 27.3152 44.3851C27.0197 43.675 26.8677 42.9139 26.8678 42.1453V26.6818H37.5774V37.3387L58.9999 37.3409Z" fill="#1C1A1A"/>
<path id="Vector_4" d="M24.1463 7.92236V10.6042H13.4344V0L24.1463 7.92236Z" fill="#1C1A1A"/>
</g>
<defs>
<clipPath id="clip0_26_16">
<rect width="59" height="48" fill="white"/>
</clipPath>
</defs>
</svg>
