<svg width="378" height="333" viewBox="0 0 378 333" fill="none" xmlns="http://www.w3.org/2000/svg">
  <path d="M213.736 121.129L213.742 120.956L213.876 121.018L213.736 121.129ZM356.795 112.393L353.822 106.795C342.258 85.0028 326.76 65.5404 308.111 49.3896L304.706 46.4445L213.871 121.029C230.441 128.775 248.378 133.171 266.652 133.965C284.926 134.759 303.177 131.934 320.357 125.655L356.795 112.393ZM213.737 120.966L212.482 3.43854L208.039 2.72396C183.68 -1.18065 158.807 -0.543856 134.683 4.60587L128.483 5.92643L141.75 42.3564C147.983 59.5516 157.551 75.3488 169.906 88.837C182.26 102.325 197.158 113.241 213.742 120.956L213.737 120.966ZM265.298 381.801L270.886 378.824C292.683 367.266 312.15 351.769 328.3 333.117L331.246 329.713L256.598 239.009C248.883 255.566 244.508 273.482 243.725 291.731C242.942 309.981 245.766 328.205 252.035 345.362L265.298 381.801ZM374.25 237.487L374.964 233.044C378.871 208.682 378.229 183.809 373.071 159.682L371.76 153.487L335.322 166.749C318.151 172.973 302.377 182.523 288.902 194.851C275.426 207.181 264.514 222.046 256.791 238.596L374.25 237.487ZM256.598 239.009L256.791 238.596L256.276 238.595L256.598 239.009ZM100.657 57.3203L87.3941 20.8815L81.796 23.855C60.0052 35.4172 40.5425 50.917 24.3922 69.5659L21.4479 72.9693L96.003 163.869C103.76 147.29 108.164 129.342 108.961 111.057C109.757 92.7694 106.933 74.5074 100.648 57.3162L100.657 57.3203ZM-22.2716 169.639C-26.1758 193.999 -25.538 218.87 -20.3889 242.997L-19.068 249.196L17.3614 235.929C34.5692 229.691 50.3766 220.114 63.8725 207.747C77.3701 195.382 88.2882 180.469 96.003 163.869L-21.5563 165.194L-22.2716 169.639ZM138.807 281.659L138.941 281.722L138.931 281.554L138.807 281.659ZM-4.11701 290.295L-1.139 295.883C10.4182 317.681 25.9143 337.147 44.5672 353.298L47.9703 356.243L138.807 281.659C122.233 273.918 104.295 269.525 86.0209 268.733C67.7466 267.94 49.4957 270.764 32.3163 277.043L-4.11701 290.295ZM138.941 281.722L140.195 399.249L144.64 399.964C169 403.871 193.874 403.23 218.001 398.072L224.195 396.761L210.932 360.322C204.697 343.127 195.127 327.332 182.773 313.844C170.419 300.356 155.523 289.44 138.941 281.722ZM138.92 281.549L139.086 281.437C173.888 257.314 214.311 242.548 256.468 238.56L256.352 238.405C232.225 203.603 217.458 163.179 213.474 121.02L213.323 121.126C178.524 145.257 138.099 160.023 95.9403 164.004L96.0416 164.164C120.173 198.96 134.941 239.382 138.925 281.538L138.92 281.549Z" fill="url(#paint0_linear_22_43)"/>
  <defs>
    <linearGradient id="paint0_linear_22_43" x1="-11.596" y1="269.747" x2="427.769" y2="150.172" gradientUnits="userSpaceOnUse">
      <stop stop-color="#C34124"/>
      <stop offset="1" stop-color="#0147FF" stop-opacity="0"/>
    </linearGradient>
  </defs>
</svg>