<svg width="30" height="30" viewBox="0 0 30 30" fill="none" xmlns="http://www.w3.org/2000/svg">
<path id="vector" d="M30 2.20588V27.7941C30 28.3792 29.7676 28.9402 29.3539 29.3539C28.9402 29.7676 28.3792 30 27.7941 30H2.20588C1.62085 30 1.05977 29.7676 0.646088 29.3539C0.232405 28.9402 0 28.3792 0 27.7941L0 2.20588C0 1.62085 0.232405 1.05977 0.646088 0.646088C1.05977 0.232405 1.62085 0 2.20588 0L27.7941 0C28.3792 0 28.9402 0.232405 29.3539 0.646088C29.7676 1.05977 30 1.62085 30 2.20588ZM8.82353 11.4706H4.41176V25.5882H8.82353V11.4706ZM9.22059 6.61765C9.22291 6.28393 9.15948 5.95303 9.03392 5.64383C8.90836 5.33463 8.72312 5.05319 8.48879 4.81558C8.25446 4.57797 7.97562 4.38884 7.66819 4.259C7.36076 4.12915 7.03077 4.06113 6.69706 4.05882H6.61765C5.939 4.05882 5.28816 4.32841 4.80829 4.80829C4.32841 5.28816 4.05882 5.939 4.05882 6.61765C4.05882 7.29629 4.32841 7.94714 4.80829 8.42701C5.28816 8.90688 5.939 9.17647 6.61765 9.17647C6.95138 9.18468 7.28347 9.12705 7.59493 9.00688C7.90638 8.8867 8.19111 8.70633 8.43283 8.47608C8.67456 8.24582 8.86855 7.9702 9.00371 7.66494C9.13888 7.35969 9.21257 7.0308 9.22059 6.69706V6.61765ZM25.5882 17.0118C25.5882 12.7676 22.8882 11.1176 20.2059 11.1176C19.3276 11.0737 18.4532 11.2607 17.6698 11.6602C16.8864 12.0596 16.2214 12.6575 15.7412 13.3941H15.6176V11.4706H11.4706V25.5882H15.8824V18.0794C15.8186 17.3104 16.0608 16.5472 16.5565 15.9558C17.0521 15.3643 17.7611 14.9923 18.5294 14.9206H18.6971C20.1 14.9206 21.1412 15.8029 21.1412 18.0265V25.5882H25.5529L25.5882 17.0118Z" fill="white" fill-opacity="0.8"/>
</svg>
