<svg width="377" height="333" viewBox="0 0 377 333" fill="none" xmlns="http://www.w3.org/2000/svg">
  <path fill-rule="evenodd" clip-rule="evenodd" d="M384.395 283.171L394.167 256.322L275.29 213.055L401.719 208.64L400.722 180.086L271.018 184.615L388.642 129.766L376.567 103.872L263.83 156.442L349.614 66.3624L328.924 46.6586L238.154 141.973L283.171 18.2901L256.322 8.51798L211.305 132.201L203.039 0.840173L174.523 2.63452L182.336 126.781L129.766 14.0437L103.872 26.1188L158.721 143.742L62.2719 56.8999L43.1548 78.133L137.167 162.782L18.29 119.514L8.51791 146.363L127.395 189.631L0.966033 194.046L1.96251 222.598L131.667 218.071L14.0443 272.919L26.1185 298.813L138.855 246.243L53.0706 336.323L73.7617 356.026L164.531 260.713L119.514 384.395L146.363 394.167L191.38 270.483L199.647 401.844L228.161 400.051L220.349 275.904L272.919 388.641L298.813 376.567L243.965 258.944L340.413 345.784L359.53 324.553L265.518 239.903L384.395 283.171Z" fill="url(#paint0_linear_9_396)"/>
  <defs>
    <linearGradient id="paint0_linear_9_396" x1="389.281" y1="269.747" x2="-48.8144" y2="77.2747" gradientUnits="userSpaceOnUse">
      <stop stop-color="#C34124"/>
      <stop offset="1" stop-color="#0147FF" stop-opacity="0"/>
    </linearGradient>
  </defs>
</svg>